<svg width="630" height="617" viewBox="0 0 630 617" fill="none" xmlns="http://www.w3.org/2000/svg">
<path d="M409.062 147.242C409.062 175.657 403.799 201.005 393.273 223.285C376.118 223.285 358.715 235.145 340.534 247.738C322.352 260.331 311.296 294 288.011 294C264.726 294 260.66 261.196 242.478 248.603C224.297 236.01 205.312 229.579 182.749 223.285C172.223 201.005 166.96 175.657 166.96 147.242C166.96 118.827 172.223 93.6409 182.749 71.6837C193.275 49.4036 207.629 31.967 225.811 19.374C243.992 6.45798 264.726 0 288.011 0C311.296 0 332.029 6.45798 350.211 19.374C368.393 31.967 382.746 49.4036 393.273 71.6837C403.799 93.6409 409.062 118.827 409.062 147.242ZM366.479 147.242C366.479 125.931 363.129 107.203 356.431 91.0577C349.733 74.9127 340.482 62.3196 328.68 53.2784C316.878 44.2372 303.322 39.7166 288.011 39.7166C272.381 39.7166 258.665 44.2372 246.863 53.2784C235.061 62.3196 225.811 74.9127 219.112 91.0577C212.414 107.203 209.065 125.931 209.065 147.242C209.065 168.554 212.414 187.282 219.112 203.427C225.811 219.249 235.061 231.68 246.863 240.722C258.665 249.763 272.381 254.283 288.011 254.283C303.322 254.283 316.878 249.763 328.68 240.722C340.482 231.68 349.733 219.249 356.431 203.427C363.129 187.282 366.479 168.554 366.479 147.242Z" fill="#C4C4C4"/>
<path d="M423.96 147.242C423.96 175.657 400.483 189.573 389.957 211.853C379.431 233.81 368.393 237.739 350.211 250.332C332.029 262.925 326.194 294 302.909 294C279.624 294 270.94 266.876 252.758 254.283C234.577 241.69 208.174 245.242 197.647 223.285C187.121 201.005 181.858 175.657 181.858 147.242C181.858 118.827 187.121 93.6409 197.647 71.6837C208.174 49.4036 222.528 31.967 240.709 19.374C258.891 6.45798 279.624 0 302.909 0C326.194 0 346.928 6.45798 365.109 19.374C383.291 31.967 397.645 49.4036 408.171 71.6837C418.697 93.6409 423.96 118.827 423.96 147.242ZM381.377 147.242C381.377 125.931 378.028 107.203 371.329 91.0577C364.631 74.9127 355.38 62.3196 343.578 53.2784C331.776 44.2372 318.22 39.7166 302.909 39.7166C287.279 39.7166 273.563 44.2372 261.761 53.2784C249.959 62.3196 240.709 74.9127 234.011 91.0577C227.312 107.203 223.963 125.931 223.963 147.242C223.963 168.554 227.312 187.282 234.011 203.427C240.709 219.249 249.959 231.68 261.761 240.722C273.563 249.763 287.279 254.283 302.909 254.283C318.22 254.283 331.776 249.763 343.578 240.722C355.38 231.68 364.631 219.249 371.329 203.427C378.028 187.282 381.377 168.554 381.377 147.242Z" fill="white"/>
<path d="M283.9 263.07C287.797 239.133 296.703 218.537 310.62 201.28C323.98 184.023 341.237 170.663 362.39 161.2C382.987 151.737 406.367 147.005 432.53 147.005C466.487 147.005 496.268 155.355 521.875 172.055C548.038 188.198 568.078 211.3 581.995 241.36C596.468 271.42 603.705 306.49 603.705 346.57C603.705 388.877 595.633 426.173 579.49 458.46C563.903 490.19 541.637 514.962 512.69 532.775L463.425 483.51C485.692 470.707 503.505 453.45 516.865 431.74C530.225 409.473 536.905 381.083 536.905 346.57C536.905 308.16 527.998 278.1 510.185 256.39C492.928 234.123 467.043 222.99 432.53 222.99C397.46 222.99 369.627 234.958 349.03 258.895C327.877 282.275 317.3 316.51 317.3 361.6V383.31H255.51V359.93C255.51 319.85 245.768 289.233 226.285 268.08C206.802 246.37 182.587 235.515 153.64 235.515C133.6 235.515 117.178 240.247 104.375 249.71C91.5717 259.173 82.1083 271.977 75.985 288.12C69.305 304.263 65.965 322.912 65.965 344.065C65.965 374.682 72.645 401.68 86.005 425.06C98.8083 447.883 116.9 465.697 140.28 478.5L93.52 523.59C74.5933 513.57 58.1717 499.375 44.255 481.005C30.3383 462.078 19.4833 440.368 11.69 415.875C3.89667 390.825 0 364.383 0 336.55C0 301.48 6.12334 270.585 18.37 243.865C30.6167 216.588 47.8734 195.435 70.14 180.405C92.4067 165.375 118.57 157.86 148.63 157.86C170.34 157.86 190.937 162.035 210.42 170.385C229.347 178.735 245.49 190.982 258.85 207.125C271.653 222.712 280.003 241.36 283.9 263.07Z" fill="#C4C4C4"/>
<path d="M309.9 263.07C313.797 239.133 322.703 218.537 336.62 201.28C349.98 184.023 367.237 170.663 388.39 161.2C408.987 151.737 432.367 147.005 458.53 147.005C492.487 147.005 522.268 155.355 547.875 172.055C574.038 188.198 594.078 211.3 607.995 241.36C622.468 271.42 629.705 306.49 629.705 346.57C629.705 388.877 621.633 426.173 605.49 458.46C589.903 490.19 567.637 514.962 538.69 532.775L489.425 483.51C511.692 470.707 529.505 453.45 542.865 431.74C556.225 409.473 562.905 381.083 562.905 346.57C562.905 308.16 553.998 278.1 536.185 256.39C518.928 234.123 493.043 222.99 458.53 222.99C423.46 222.99 395.627 234.958 375.03 258.895C353.877 282.275 343.3 316.51 343.3 361.6V383.31H281.51V359.93C281.51 319.85 271.768 289.233 252.285 268.08C232.802 246.37 208.587 235.515 179.64 235.515C159.6 235.515 143.178 240.247 130.375 249.71C117.572 259.173 108.108 271.977 101.985 288.12C95.305 304.263 91.965 322.912 91.965 344.065C91.965 374.682 98.645 401.68 112.005 425.06C124.808 447.883 142.9 465.697 166.28 478.5L119.52 523.59C100.593 513.57 84.1717 499.375 70.255 481.005C56.3383 462.078 45.4833 440.368 37.69 415.875C29.8967 390.825 26 364.383 26 336.55C26 301.48 32.1233 270.585 44.37 243.865C56.6167 216.588 73.8734 195.435 96.14 180.405C118.407 165.375 144.57 157.86 174.63 157.86C196.34 157.86 216.937 162.035 236.42 170.385C255.347 178.735 271.49 190.982 284.85 207.125C297.653 222.712 306.003 241.36 309.9 263.07Z" fill="white"/>
<path d="M157.46 325.508C157.46 338.763 160.215 342.008 146.96 342.008C133.705 342.008 106.96 345.263 106.96 332.008C106.96 318.753 124.205 313.008 137.46 313.008C150.715 313.008 157.46 312.253 157.46 325.508Z" fill="white"/>
<path d="M284.754 106.65C284.754 117.936 287.143 120.699 275.648 120.699C264.154 120.699 240.96 123.471 240.96 112.185C240.96 100.899 255.915 96.0067 267.41 96.0067C278.905 96.0067 284.754 95.364 284.754 106.65Z" fill="white"/>
<path d="M229.46 325.508C229.46 338.763 232.215 342.008 218.96 342.008C205.705 342.008 178.96 345.263 178.96 332.008C178.96 318.753 196.205 313.008 209.46 313.008C222.715 313.008 229.46 312.253 229.46 325.508Z" fill="white"/>
<path d="M437.198 325.508C437.198 338.763 434.443 342.008 447.698 342.008C460.952 342.008 487.698 345.263 487.698 332.008C487.698 318.753 470.452 313.008 457.198 313.008C443.943 313.008 437.198 312.253 437.198 325.508Z" fill="white"/>
<path d="M309.166 106.65C309.166 117.936 306.777 120.699 318.272 120.699C329.766 120.699 352.96 123.471 352.96 112.185C352.96 100.899 338.005 96.0067 326.51 96.0067C315.015 96.0067 309.166 95.364 309.166 106.65Z" fill="white"/>
<path d="M373.198 325.508C373.198 338.763 370.443 342.008 383.698 342.008C396.952 342.008 423.698 345.263 423.698 332.008C423.698 318.753 406.452 313.008 393.198 313.008C379.943 313.008 373.198 312.253 373.198 325.508Z" fill="white"/>
<path d="M493.384 601.374V616H441.884V604.464L467.737 574.697H442.605V560.174H492.354V571.607L466.501 601.374H493.384Z" fill="#FF3333"/>
<path d="M411.439 616.927C405.259 616.927 399.731 615.691 394.856 613.219C389.981 610.747 386.17 607.314 383.423 602.919C380.745 598.524 379.406 593.546 379.406 587.984C379.406 582.422 380.745 577.478 383.423 573.152C386.17 568.757 389.981 565.358 394.856 562.955C399.731 560.483 405.259 559.247 411.439 559.247C417.756 559.247 423.215 560.62 427.816 563.367C432.417 566.045 435.678 569.787 437.601 574.594L422.46 582.319C419.919 577.306 416.211 574.8 411.336 574.8C407.834 574.8 404.916 575.967 402.581 578.302C400.315 580.637 399.182 583.864 399.182 587.984C399.182 592.173 400.315 595.469 402.581 597.872C404.916 600.207 407.834 601.374 411.336 601.374C416.211 601.374 419.919 598.868 422.46 593.855L437.601 601.58C435.678 606.387 432.417 610.163 427.816 612.91C423.215 615.588 417.756 616.927 411.439 616.927Z" fill="#FF3333"/>
<path d="M362.28 616.927C358.984 616.927 356.203 615.828 353.937 613.631C351.671 611.434 350.538 608.653 350.538 605.288C350.538 601.855 351.637 599.074 353.834 596.945C356.1 594.816 358.915 593.752 362.28 593.752C365.713 593.752 368.529 594.816 370.726 596.945C372.923 599.074 374.022 601.855 374.022 605.288C374.022 608.653 372.889 611.434 370.623 613.631C368.426 615.828 365.645 616.927 362.28 616.927Z" fill="#FF3333"/>
<path fill-rule="evenodd" clip-rule="evenodd" d="M345.017 588.19C345.017 588.327 344.914 589.941 344.708 593.031H304.126C304.95 595.915 306.529 598.147 308.864 599.726C311.267 601.237 314.254 601.992 317.825 601.992C320.503 601.992 322.803 601.614 324.726 600.859C326.717 600.104 328.709 598.868 330.7 597.151L341 607.863C335.575 613.906 327.644 616.927 317.207 616.927C310.684 616.927 304.95 615.691 300.006 613.219C295.062 610.747 291.217 607.314 288.47 602.919C285.792 598.524 284.453 593.546 284.453 587.984C284.453 582.491 285.758 577.581 288.367 573.255C291.045 568.86 294.719 565.427 299.388 562.955C304.057 560.483 309.31 559.247 315.147 559.247C320.709 559.247 325.756 560.414 330.288 562.749C334.82 565.015 338.391 568.345 341 572.74C343.678 577.066 345.017 582.216 345.017 588.19ZM307.628 575.727C309.688 574.01 312.229 573.152 315.25 573.152C318.271 573.152 320.778 574.01 322.769 575.727C324.829 577.444 326.134 579.778 326.683 582.731H303.817C304.366 579.778 305.637 577.444 307.628 575.727Z" fill="#FF3333"/>
<path d="M255.667 560.174H275.237V616H255.667V560.174Z" fill="#FF3333"/>
<path d="M265.452 553.994C261.881 553.994 258.997 552.998 256.8 551.007C254.602 549.016 253.504 546.544 253.504 543.591C253.504 540.638 254.602 538.166 256.8 536.175C258.997 534.184 261.881 533.188 265.452 533.188C269.022 533.188 271.906 534.149 274.104 536.072C276.301 537.926 277.4 540.329 277.4 543.282C277.4 546.372 276.301 548.947 274.104 551.007C271.906 552.998 269.022 553.994 265.452 553.994Z" fill="#FF3333"/>
<path d="M228.845 566.869C230.836 564.328 233.411 562.44 236.57 561.204C239.797 559.899 243.471 559.247 247.591 559.247V576.86C245.806 576.654 244.329 576.551 243.162 576.551C238.973 576.551 235.677 577.684 233.274 579.95C230.939 582.216 229.772 585.684 229.772 590.353V616H210.202V560.174H228.845V566.869Z" fill="#FF3333"/>
<path fill-rule="evenodd" clip-rule="evenodd" d="M197.611 539.574V616H178.968V610.438C175.329 614.764 169.87 616.927 162.591 616.927C157.51 616.927 152.875 615.76 148.686 613.425C144.497 611.022 141.167 607.623 138.695 603.228C136.292 598.833 135.09 593.752 135.09 587.984C135.09 582.216 136.292 577.169 138.695 572.843C141.167 568.448 144.497 565.084 148.686 562.749C152.875 560.414 157.51 559.247 162.591 559.247C169.252 559.247 174.402 561.17 178.041 565.015V539.574H197.611ZM175.054 597.872C172.857 600.207 170.076 601.374 166.711 601.374C163.278 601.374 160.462 600.207 158.265 597.872C156.068 595.469 154.969 592.173 154.969 587.984C154.969 583.864 156.068 580.637 158.265 578.302C160.462 575.967 163.278 574.8 166.711 574.8C170.144 574.8 172.925 575.967 175.054 578.302C177.251 580.637 178.35 583.864 178.35 587.984C178.35 592.173 177.251 595.469 175.054 597.872Z" fill="#FF3333"/>
</svg>
